<svg width="312" height="270" viewBox="0 0 312 270" fill="none" xmlns="http://www.w3.org/2000/svg">
<path d="M130.397 214.875C130.415 217.155 131.338 219.334 132.963 220.934C134.588 222.534 136.782 223.425 139.064 223.41L286.732 222.353C289.014 222.335 291.195 221.414 292.796 219.79C294.397 218.166 295.287 215.974 295.271 213.695C295.255 211.415 294.333 209.236 292.709 207.636C291.084 206.035 288.89 205.144 286.609 205.16L138.94 206.217C136.659 206.235 134.478 207.157 132.876 208.781C131.274 210.404 130.383 212.596 130.397 214.875Z" fill="#F2F2F2"/>
<path d="M148.11 212.819C148.11 212.675 148.167 212.536 148.269 212.433C148.371 212.331 148.51 212.273 148.654 212.272L186.796 212.136C186.867 212.135 186.938 212.149 187.005 212.176C187.071 212.204 187.131 212.244 187.182 212.294C187.233 212.345 187.274 212.405 187.301 212.471C187.329 212.537 187.343 212.608 187.344 212.679C187.344 212.751 187.33 212.822 187.303 212.888C187.276 212.954 187.236 213.015 187.185 213.066C187.135 213.116 187.074 213.157 187.008 213.184C186.942 213.212 186.871 213.226 186.799 213.227L148.658 213.363C148.514 213.363 148.375 213.306 148.272 213.204C148.169 213.102 148.111 212.964 148.11 212.819Z" fill="#CCCCCC"/>
<path d="M148.154 217.821C148.154 217.676 148.211 217.537 148.313 217.435C148.415 217.332 148.554 217.274 148.698 217.273L246.901 216.691C246.972 216.691 247.043 216.704 247.11 216.731C247.176 216.759 247.237 216.798 247.288 216.849C247.339 216.899 247.379 216.959 247.407 217.025C247.435 217.091 247.449 217.162 247.45 217.234C247.45 217.305 247.436 217.376 247.409 217.443C247.382 217.509 247.342 217.569 247.292 217.62C247.242 217.671 247.182 217.712 247.115 217.74C247.049 217.767 246.978 217.782 246.907 217.782H246.904L148.702 218.364C148.557 218.365 148.418 218.308 148.316 218.206C148.213 218.104 148.155 217.965 148.154 217.821Z" fill="#CCCCCC"/>
<path d="M130.397 182.152C130.415 184.431 131.338 186.61 132.963 188.21C134.588 189.81 136.782 190.701 139.064 190.687L286.732 189.629C289.014 189.612 291.195 188.69 292.796 187.066C294.397 185.443 295.287 183.25 295.271 180.971C295.255 178.692 294.333 176.513 292.709 174.912C291.084 173.311 288.89 172.421 286.609 172.436L138.94 173.493C136.659 173.512 134.478 174.434 132.876 176.057C131.274 177.68 130.383 179.872 130.397 182.152Z" fill="#F2F2F2"/>
<path d="M146.489 185.097C146.488 184.952 146.545 184.814 146.647 184.711C146.749 184.608 146.888 184.55 147.033 184.55L245.235 183.968C245.307 183.967 245.378 183.981 245.444 184.008C245.51 184.036 245.571 184.075 245.622 184.126C245.673 184.176 245.713 184.236 245.741 184.303C245.768 184.369 245.783 184.44 245.783 184.511C245.783 184.583 245.769 184.654 245.742 184.72C245.715 184.786 245.675 184.847 245.624 184.897C245.574 184.948 245.514 184.989 245.448 185.016C245.382 185.044 245.311 185.058 245.239 185.059L147.037 185.641C146.892 185.641 146.753 185.584 146.65 185.482C146.548 185.38 146.489 185.242 146.489 185.097Z" fill="#CCCCCC"/>
<path d="M146.489 179.551C146.488 179.406 146.545 179.267 146.647 179.165C146.749 179.062 146.888 179.004 147.033 179.003L245.235 178.421C245.307 178.421 245.378 178.435 245.444 178.462C245.51 178.489 245.571 178.529 245.622 178.58C245.673 178.63 245.713 178.69 245.741 178.756C245.768 178.822 245.783 178.893 245.783 178.965C245.783 179.036 245.769 179.107 245.742 179.174C245.715 179.24 245.675 179.3 245.624 179.351C245.574 179.402 245.514 179.442 245.448 179.47C245.382 179.498 245.311 179.512 245.239 179.512L147.037 180.094C146.892 180.095 146.753 180.038 146.65 179.936C146.548 179.834 146.489 179.695 146.489 179.551Z" fill="#CCCCCC"/>
<path d="M173.615 252.806L25.9465 251.749C23.6651 251.734 21.4711 252.624 19.8467 254.225C18.2224 255.825 17.3008 258.005 17.2844 260.284C17.2681 262.563 18.1583 264.756 19.7595 266.379C21.3608 268.003 23.5418 268.925 25.8232 268.942L173.492 270C175.773 270.015 177.967 269.124 179.592 267.524C181.216 265.923 182.138 263.744 182.154 261.465C182.17 259.185 181.28 256.993 179.679 255.369C178.078 253.746 175.897 252.824 173.615 252.806Z" fill="#F2F2F2"/>
<path d="M72.2952 259.953L34.154 259.816C34.0823 259.816 34.0113 259.802 33.9452 259.774C33.879 259.746 33.819 259.706 33.7684 259.655C33.7179 259.604 33.6779 259.544 33.6507 259.478C33.6235 259.411 33.6096 259.34 33.6099 259.269C33.6101 259.197 33.6245 259.126 33.6522 259.06C33.6799 258.994 33.7203 258.934 33.7712 258.884C33.8221 258.833 33.8824 258.793 33.9488 258.766C34.0151 258.739 34.0862 258.725 34.1579 258.725L72.2991 258.861C72.3709 258.861 72.4421 258.876 72.5084 258.903C72.5747 258.931 72.635 258.971 72.6856 259.022C72.7363 259.073 72.7765 259.133 72.8038 259.2C72.8311 259.266 72.845 259.337 72.8447 259.409C72.8445 259.481 72.8301 259.552 72.8023 259.618C72.7745 259.684 72.734 259.744 72.6829 259.795C72.6319 259.845 72.5713 259.885 72.5048 259.912C72.4383 259.939 72.3671 259.953 72.2952 259.953Z" fill="#CCCCCC"/>
<path d="M132.764 264.954L34.5617 264.372C34.49 264.371 34.419 264.357 34.3529 264.329C34.2867 264.302 34.2267 264.261 34.1761 264.211C34.1256 264.16 34.0856 264.099 34.0584 264.033C34.0312 263.967 34.0173 263.896 34.0176 263.824C34.0178 263.753 34.0322 263.682 34.0599 263.616C34.0876 263.55 34.128 263.49 34.1789 263.439C34.2298 263.389 34.2901 263.349 34.3565 263.321C34.4228 263.294 34.4939 263.28 34.5656 263.281L132.768 263.863C132.839 263.863 132.91 263.877 132.977 263.905C133.043 263.933 133.103 263.973 133.153 264.024C133.204 264.075 133.244 264.135 133.271 264.201C133.298 264.268 133.312 264.339 133.312 264.41C133.312 264.482 133.297 264.553 133.27 264.619C133.242 264.685 133.201 264.745 133.151 264.795C133.1 264.846 133.039 264.886 132.973 264.913C132.907 264.94 132.836 264.954 132.764 264.954Z" fill="#CCCCCC"/>
<path d="M308.114 185.339C310.26 185.339 312 183.601 312 181.457C312 179.312 310.26 177.574 308.114 177.574C305.967 177.574 304.228 179.312 304.228 181.457C304.228 183.601 305.967 185.339 308.114 185.339Z" fill="#F2F2F2"/>
<path d="M308.114 218.063C310.26 218.063 312 216.324 312 214.18C312 212.036 310.26 210.298 308.114 210.298C305.967 210.298 304.228 212.036 304.228 214.18C304.228 216.324 305.967 218.063 308.114 218.063Z" fill="#F2F2F2"/>
<path d="M133.642 238.76L26.8041 254.75C25.9335 254.881 25.0456 254.839 24.1912 254.627C23.3367 254.415 22.5325 254.037 21.8244 253.514C21.1163 252.991 20.5182 252.334 20.0644 251.581C19.6106 250.827 19.3098 249.991 19.1794 249.121C19.049 248.251 19.0914 247.364 19.3043 246.511C19.5171 245.657 19.8962 244.854 20.4199 244.147C20.9436 243.44 21.6016 242.843 22.3564 242.39C23.1111 241.937 23.9478 241.638 24.8186 241.508L131.657 225.519C132.527 225.388 133.415 225.429 134.27 225.641C135.124 225.853 135.928 226.232 136.637 226.754C137.345 227.277 137.943 227.934 138.397 228.688C138.85 229.441 139.151 230.277 139.282 231.147C139.412 232.017 139.37 232.904 139.157 233.757C138.944 234.611 138.565 235.414 138.041 236.121C137.517 236.828 136.859 237.425 136.105 237.878C135.35 238.331 134.513 238.631 133.642 238.76Z" fill="#F89F39"/>
<path d="M59.3068 242.579L31.7272 246.808C31.6225 246.824 31.5156 246.798 31.4302 246.735C31.3448 246.673 31.2878 246.579 31.2717 246.474C31.2556 246.369 31.2818 246.263 31.3445 246.177C31.4072 246.092 31.5013 246.035 31.606 246.019L59.1856 241.79C59.2903 241.774 59.3971 241.8 59.4825 241.863C59.568 241.926 59.625 242.019 59.641 242.124C59.6571 242.229 59.6309 242.335 59.5682 242.421C59.5056 242.506 59.4115 242.563 59.3068 242.579Z" fill="white"/>
<path d="M103.575 239.333L32.5397 250.054C32.435 250.07 32.3281 250.044 32.2427 249.981C32.1573 249.918 32.1003 249.825 32.0842 249.72C32.0681 249.615 32.0943 249.509 32.157 249.423C32.2197 249.338 32.3138 249.281 32.4185 249.265L103.454 238.544C103.506 238.536 103.559 238.538 103.61 238.551C103.661 238.563 103.709 238.585 103.751 238.616C103.794 238.647 103.83 238.687 103.857 238.731C103.884 238.776 103.902 238.826 103.91 238.878C103.918 238.93 103.916 238.983 103.903 239.034C103.891 239.085 103.868 239.133 103.837 239.175C103.806 239.217 103.767 239.253 103.722 239.28C103.677 239.307 103.627 239.325 103.575 239.333V239.333Z" fill="white"/>
<path d="M108.824 230.713C108.409 230.689 108.005 230.575 107.639 230.38C107.273 230.184 106.954 229.912 106.703 229.581C106.453 229.25 106.278 228.869 106.189 228.464C106.101 228.059 106.102 227.639 106.192 227.234L94.5796 218.926L96.0902 215.152L109.81 225.121C110.481 225.323 111.054 225.763 111.422 226.359C111.789 226.955 111.925 227.665 111.803 228.354C111.681 229.044 111.311 229.665 110.762 230.099C110.213 230.534 109.523 230.752 108.824 230.713Z" fill="#A0616A"/>
<path d="M77.6273 184.258L70.6495 186.809C70.3428 186.921 70.0613 187.093 69.821 187.313C69.5806 187.534 69.3862 187.8 69.2487 188.096C69.1112 188.392 69.0334 188.712 69.0198 189.038C69.0061 189.364 69.0568 189.689 69.169 189.996C69.1964 190.07 69.2273 190.144 69.2619 190.216L78.7756 210.044L101.699 226.549L105.212 220.956L87.8477 205.159L77.6273 184.258Z" fill="#3F3D56"/>
<path d="M74.758 225.264C66.806 224.525 59.0164 222.691 51.0522 222.074L54.2485 213.947L70.583 216.378L74.758 225.264Z" fill="#A0616A"/>
<path d="M47.779 227.175L47.7099 227.783L47.1413 232.672L46.4753 232.713L46.4387 238.836C46.6482 239.442 46.6471 240.1 46.4356 240.706C46.2241 241.311 45.8146 241.827 45.2732 242.171C45.1834 242.229 45.0898 242.28 44.9929 242.325C44.5879 239.147 44.7101 235.924 45.3544 232.786C45.613 231.619 45.9942 230.482 46.4916 229.394C46.7421 228.856 47.027 228.334 47.3444 227.832C47.4784 227.609 47.6246 227.39 47.779 227.175Z" fill="#2F2E41"/>
<path d="M47.9049 226.12L47.779 227.171V227.175L47.71 227.783C47.5313 227.808 47.4054 227.824 47.3445 227.832C47.3297 227.834 47.3148 227.836 47.2998 227.836L47.9049 226.12Z" fill="#00BFA6"/>
<path d="M76.821 205.97L75.4483 213.947C75.4483 213.947 78.7826 221.454 76.488 223.324C76.2073 223.575 75.9914 223.891 75.8585 224.243C75.7256 224.596 75.6796 224.975 75.7245 225.349C75.3996 225.32 75.0787 225.292 74.7579 225.264C66.8059 224.525 59.0163 222.691 51.0521 222.074C50.4876 222.03 49.9271 221.989 49.3626 221.961L51.8157 214.99L50.1586 208.794L48.4407 202.367L48.0712 191.785C48.0623 191.585 48.0637 191.385 48.0752 191.185C48.0752 191.079 48.0793 190.978 48.0874 190.872C48.1767 189.536 48.5645 188.237 49.2223 187.07C49.8802 185.903 50.7913 184.898 51.8888 184.129C51.8919 184.129 51.8947 184.127 51.8969 184.125C52.2712 183.863 52.6649 183.629 53.0747 183.427C53.5149 183.209 53.9727 183.028 54.4433 182.887L54.9144 182.745L57.4649 178.623L60.4216 178.315L61.5181 178.201L68.6619 177.458L70.2011 179.455L70.4814 179.82L71.5657 181.224L74.9447 183.021C75.6833 183.413 76.3583 183.913 76.9469 184.506C78.3285 185.886 79.1858 187.704 79.3715 189.647C79.4162 190.095 79.4244 190.545 79.3959 190.994L76.821 205.97Z" fill="#3F3D56"/>
<path d="M42.0477 170.045C41.9743 173.199 43.1539 176.252 44.8486 178.934C45.4147 177.377 46.2074 175.911 47.2013 174.585C46.7254 177.524 47.2323 180.537 48.6434 183.159C48.6932 183.194 48.7447 183.227 48.7978 183.258C49.4753 183.697 50.2441 183.976 51.0457 184.074C51.8474 184.173 52.6609 184.087 53.4246 183.825C51.916 182.119 51.0113 179.964 50.8502 177.694C50.689 175.423 51.2802 173.163 52.5327 171.261C53.2655 170.203 54.2133 169.267 54.6672 168.063C55.3839 166.142 54.695 164.026 54.2604 162.023C53.854 160.158 53.7829 157.939 55.035 156.573C54.9012 156.382 54.7191 156.23 54.5072 156.132C54.2953 156.035 54.0612 155.996 53.8291 156.018C53.4516 156.114 53.102 156.297 52.8081 156.552C52.5143 156.807 52.2845 157.128 52.1373 157.488C51.8486 158.209 51.4822 158.897 51.0446 159.54C50.121 160.656 48.5481 160.92 47.2225 161.508C44.0124 162.937 42.1246 166.536 42.0477 170.045Z" fill="#2F2E41"/>
<path d="M69.0695 168.242C68.886 167.601 70.1504 171.522 69.5403 171.593C66.7614 171.911 62.9467 173.569 61.0112 174.343C60.924 174.333 60.8369 174.322 60.7523 174.31C60.5446 174.287 60.3421 174.254 60.1422 174.216C55.6354 173.364 53.9023 166.448 53.9023 166.385C53.9023 166.074 54.6493 157.534 55.826 157.408C56.135 157.374 56.4457 157.357 56.7565 157.357H59.6764C60.2806 157.227 60.8931 157.138 61.5094 157.092H61.5145C67.3927 156.644 72.0277 160.224 71.5944 164.579C71.5919 164.584 71.5867 164.589 71.5842 164.594C71.4585 164.781 71.3483 164.958 71.2509 165.128C71.156 165.287 71.0766 165.439 71.0074 165.583C70.4716 166.695 71.8488 168.095 70.9356 168.356C69.721 168.703 74.13 180.123 69.3225 180.123C71.661 180.787 69.5755 170.012 69.0695 168.242Z" fill="#2F2E41"/>
<path d="M63.8219 174.943C67.64 174.943 70.7351 171.851 70.7351 168.036C70.7351 164.222 67.64 161.129 63.8219 161.129C60.0038 161.129 56.9087 164.222 56.9087 168.036C56.9087 171.851 60.0038 174.943 63.8219 174.943Z" fill="#A0616A"/>
<path d="M71.5941 164.956C71.4788 165.017 71.366 165.072 71.2506 165.128C71.1301 165.186 71.0097 165.244 70.8891 165.297C68.5742 166.346 66.69 166.463 65.5467 164.956C65.5161 164.163 65.3378 163.383 65.0212 162.656C65.0771 163.469 64.8626 164.277 64.411 164.956H62.109C59.7377 166.528 58.52 166.693 60.1658 171.855C60.6247 173.293 62.4493 181.663 61.7315 182.904C61.5238 182.881 59.3147 173.714 59.1147 173.676C54.608 172.824 51.7445 165.406 52.1111 164.986C52.1093 163.793 52.3839 162.615 52.9135 161.546C53.5834 160.191 54.6278 159.056 55.9231 158.275C56.6952 157.901 57.5001 157.599 58.3277 157.372C58.3482 157.367 58.3662 157.362 58.3867 157.357C58.6405 157.289 58.8994 157.226 59.1583 157.173C59.6932 157.06 60.2341 156.978 60.7785 156.927C60.8169 156.925 60.8554 156.922 60.8913 156.922C61.1086 156.923 61.3219 156.981 61.5091 157.092C61.5116 157.092 61.5116 157.094 61.5142 157.094C61.648 157.172 61.7648 157.276 61.8577 157.4C62.0215 157.608 62.11 157.866 62.109 158.131H64.6725C64.7674 158.131 64.8622 158.133 64.9571 158.138C66.668 158.197 68.2956 158.891 69.5213 160.085C70.7469 161.279 71.4824 162.887 71.5839 164.594C71.5916 164.716 71.5941 164.835 71.5941 164.956Z" fill="#2F2E41"/>
<path d="M56.4788 162.748C58.9941 162.748 61.0332 160.711 61.0332 158.198C61.0332 155.685 58.9941 153.648 56.4788 153.648C53.9634 153.648 51.9243 155.685 51.9243 158.198C51.9243 160.711 53.9634 162.748 56.4788 162.748Z" fill="#2F2E41"/>
<path d="M45.2732 242.171C45.1834 242.229 45.0898 242.28 44.993 242.325C44.6561 242.491 44.2898 242.589 43.9151 242.613C43.5403 242.638 43.1644 242.588 42.8088 242.467C42.4532 242.347 42.1249 242.157 41.8426 241.91C41.5604 241.662 41.3296 241.362 41.1636 241.025C40.9976 240.688 40.8996 240.322 40.8752 239.948C40.8508 239.574 40.9004 239.198 41.0212 238.843C41.1421 238.488 41.3318 238.16 41.5795 237.878C41.8272 237.596 42.1281 237.365 42.465 237.199C42.5137 237.175 42.563 237.153 42.6131 237.132L42.6049 232.956L42.5968 228.043L42.5887 222.861L46.5363 221.888L46.4916 229.394L46.4753 232.713L46.4388 238.836C46.6482 239.441 46.6471 240.1 46.4356 240.705C46.2241 241.311 45.8146 241.827 45.2732 242.171Z" fill="#A0616A"/>
<path d="M60.8767 188.88L60.4665 189.647L50.159 208.794L49.8503 209.366L48.3923 221.916L47.905 226.12L47.7791 227.17V227.175L47.71 227.783L47.1414 232.672L46.4754 232.713L45.3545 232.786L42.605 232.956L40.5459 233.086L40.55 229.796L40.5865 204.858L48.0755 191.185L48.2583 190.848L51.1499 185.569C51.4675 184.99 52.0022 184.561 52.6364 184.376C53.2707 184.191 53.9525 184.266 54.5319 184.583C54.6005 184.621 54.6672 184.661 54.732 184.705L60.8767 188.88Z" fill="#3F3D56"/>
<path d="M3.88612 262.434C6.03237 262.434 7.77224 260.695 7.77224 258.551C7.77224 256.407 6.03237 254.669 3.88612 254.669C1.73988 254.669 0 256.407 0 258.551C0 260.695 1.73988 262.434 3.88612 262.434Z" fill="#F2F2F2"/>
<path d="M270.323 117.833C270.323 117.833 268.914 132.736 268.134 143.769V143.777C268.073 144.665 268.016 145.524 267.963 146.353L267.549 146.39C267.265 146.418 266.985 146.451 266.7 146.479C262.16 146.962 257.664 147.761 253.152 148.455C252.717 148.52 252.283 148.585 251.848 148.65C247.348 149.384 242.795 149.753 238.235 149.753H238.149C238.186 149.185 238.243 148.443 238.308 147.591C238.69 142.766 239.461 134.404 239.461 134.404L240.18 129.563L242.532 113.707L242.548 113.585L242.568 113.447L242.682 113.419L247.62 112.137L250.276 111.451L251.82 109.325L253.875 106.493L262.42 107.544L263.045 109.873L264.203 114.165L264.239 114.303L268.723 116.904L270.323 117.833Z" fill="#E6E6E6"/>
<path d="M258.126 105.576C263.127 105.576 267.181 101.525 267.181 96.5284C267.181 91.5318 263.127 87.4812 258.126 87.4812C253.124 87.4812 249.07 91.5318 249.07 96.5284C249.07 101.525 253.124 105.576 258.126 105.576Z" fill="#FFB6B6"/>
<path d="M248.637 91.053C249.432 91.695 249.25 94.817 250.136 94.3082C251.022 93.7993 251.206 92.888 252.226 92.8784C253.058 92.9243 253.843 93.279 254.426 93.873C254.535 93.9711 254.638 94.0739 254.739 94.1755C254.83 94.1433 254.921 94.1142 255.016 94.0903C255.732 93.9158 256.487 94.022 257.127 94.3872C256.536 94.4293 255.974 94.6559 255.519 95.0347C255.714 95.2528 255.912 95.472 256.119 95.6747C257.854 97.3727 261.41 95.5644 263.801 95.1564C261.809 97.3288 262.202 98.5415 262.697 101.445L262.699 101.604C262.801 100.934 264.948 100.967 264.594 101.856C264.149 102.734 263.593 103.55 262.939 104.286C265.864 102.261 268.225 99.4711 268.747 96.1004C268.939 95.4093 268.977 94.6851 268.861 93.9776C268.775 93.6282 268.576 93.317 268.295 93.0928C268.013 92.8685 267.665 92.7437 267.305 92.738C267.631 91.704 267.67 90.6011 267.419 89.5467C267.167 88.4922 266.634 87.5255 265.877 86.7493C265.12 85.9732 264.166 85.4166 263.117 85.1388C262.068 84.8609 260.964 84.8722 259.921 85.1713C258.97 85.5091 258.042 85.9093 257.143 86.3691C256.236 86.8308 255.21 87.0045 254.201 86.8669C253.573 86.7373 252.937 86.4123 252.321 86.5963C251.607 86.8101 251.301 87.563 251.015 88.2898C251.551 88.4857 252.018 88.837 252.354 89.2989C251.799 89.0943 251.193 89.0697 250.623 89.2287C250.613 89.2305 250.603 89.2333 250.593 89.237C249.947 90.3936 249.909 90.6772 248.637 91.053Z" fill="#2F2E41"/>
<path d="M253.152 148.455C252.717 148.52 252.283 148.585 251.848 148.65C247.348 149.384 242.795 149.753 238.235 149.753C238.267 149.035 238.288 148.313 238.308 147.591C238.336 146.58 238.357 145.566 238.377 144.552C238.47 139.955 238.564 135.359 238.657 130.764C238.661 130.545 238.665 130.322 238.669 130.103C238.763 125.457 238.889 120.657 240.818 116.425C241.258 115.461 241.807 114.551 242.454 113.711C242.487 113.666 242.515 113.626 242.548 113.585C242.593 113.528 242.637 113.471 242.682 113.419C243.2 112.773 243.776 112.177 244.404 111.638C245.374 110.745 246.512 110.055 247.752 109.607C248.991 109.159 250.308 108.962 251.625 109.029L251.82 109.325L252.08 109.726C251.909 110.996 251.735 112.27 251.572 113.545C250.87 119.067 250.366 124.621 250.93 130.148C251.41 134.793 252.64 139.342 253.03 143.992C253.046 144.146 253.059 144.304 253.071 144.458C253.167 145.788 253.194 147.122 253.152 148.455Z" fill="#3F3D56"/>
<path d="M267.549 146.387C267.748 145.522 267.937 144.651 268.137 143.775V143.769C268.909 140.308 269.682 136.847 270.458 133.386C271.474 128.849 272.489 124.157 271.618 119.592C271.529 119.123 271.416 118.658 271.279 118.2C271.235 118.051 271.185 117.901 271.135 117.751C270.785 116.7 270.31 115.694 269.719 114.756C268.176 112.293 265.866 110.38 263.046 109.875C262.994 109.859 262.94 109.848 262.885 109.842L262.269 110.413C262.141 111.595 262.019 112.787 261.886 113.974C261.253 119.592 260.426 125.205 258.533 130.519C256.912 135.067 254.536 139.321 253.053 143.913C253.048 143.941 253.037 143.969 253.031 143.991C252.542 145.518 252.147 147.074 251.849 148.65C252.282 148.583 252.72 148.522 253.153 148.456C257.667 147.762 262.158 146.964 266.699 146.481L267.549 146.387Z" fill="#3F3D56"/>
<path d="M276.37 94.6248L276.11 92.1335L276.049 91.5573L275.955 90.6322L273.949 71.4039C274.115 70.8492 274.092 70.2552 273.884 69.7149C273.676 69.1745 273.295 68.7183 272.8 68.4176C272.228 68.0768 271.544 67.9769 270.898 68.1397C270.252 68.3025 269.697 68.7147 269.356 69.2859C269.344 69.3061 269.335 69.3264 269.323 69.3467C268.982 69.941 268.886 70.6446 269.056 71.3083C269.226 71.9719 269.648 72.5433 270.233 72.9011C270.354 72.9703 270.48 73.03 270.611 73.0796L270.594 73.6193L270.546 75.3112L270.509 76.5893L270.432 79.1333L270.404 80.1193L270.31 83.3166L270.221 86.4003L270.111 90.1372L270.026 93.0099L271.061 93.2736L276.37 94.6248Z" fill="#FFB6B6"/>
<path d="M278.376 98.7187C278.333 98.3849 278.252 98.0569 278.136 97.7409C277.613 96.832 277.292 98.1019 277.58 95.6675C277.812 93.6915 276.423 93.939 276.922 93.517C277.747 92.8192 276.609 92.5108 276.11 92.1335C275.886 91.9671 275.793 91.7885 276.049 91.5573C276.169 91.4528 276.303 91.3654 276.447 91.2976C276.991 91.0136 276.678 90.7985 275.956 90.6322C274.329 90.3615 272.686 90.2082 271.037 90.1737C270.639 90.1534 270.314 90.1453 270.111 90.1372C269.961 90.1331 269.876 90.1331 269.876 90.1331C269.592 90.4017 269.415 90.7632 269.376 91.1515C269.256 91.9762 269.32 92.8172 269.563 93.6144C269.73 94.1679 269.952 94.7034 270.225 95.213C270.329 95.4041 270.377 95.6208 270.363 95.8379V95.842C270.334 95.9702 270.277 96.0905 270.197 96.1942C270.116 96.298 270.013 96.3828 269.896 96.4425C269.348 96.8076 269.652 97.5745 270.079 98.2967C270.441 98.7807 270.749 99.3032 270.997 99.8548C270.997 100.354 267.618 110.96 267.618 110.96L268.86 126.975C269.782 127.685 270.945 128.007 272.101 127.872C273.066 127.709 273.957 127.256 274.656 126.573C275.639 125.613 276.439 124.481 277.015 123.234C280.297 116.649 279.075 102.606 278.376 98.7187Z" fill="#3F3D56"/>
<path d="M216.756 72.3078C217.372 72.608 217.847 73.1365 218.079 73.781C218.311 74.4254 218.282 75.1349 217.999 75.7585C217.939 75.8844 217.869 76.0051 217.79 76.1194L229.475 92.281L225.131 97.1765L214.084 76.6071C213.635 76.2408 213.32 75.7363 213.188 75.1724C213.057 74.6085 213.115 74.0169 213.356 73.4898C213.637 72.8868 214.147 72.4204 214.773 72.1931C215.4 71.9658 216.09 71.9962 216.694 72.2778C216.715 72.2875 216.735 72.2975 216.756 72.3078Z" fill="#FFB6B6"/>
<path d="M249.512 119.695C249.512 119.695 247.95 125.277 240.66 121.176C233.37 117.075 225.485 101.76 225.406 100.711C225.327 99.6615 226.307 100.534 224.702 98.6824C223.397 97.1767 224.686 96.6019 224.036 96.5323C222.323 96.3486 225.297 94.1789 223.182 94.4279C221.067 94.6768 227.964 89.7785 227.964 89.7785C227.964 89.7785 229.222 89.8086 230.181 92.4857C230.72 93.9893 230.211 95.0181 231.495 95.0123C232.779 95.0064 232.23 98.0528 232.501 98.4553C232.773 98.8579 241.537 105.747 241.537 105.747L249.512 119.695Z" fill="#3F3D56"/>
<path d="M239.813 84.3952C263.14 84.3952 282.051 65.5027 282.051 42.1976C282.051 18.8925 263.14 0 239.813 0C216.486 0 197.576 18.8925 197.576 42.1976C197.576 65.5027 216.486 84.3952 239.813 84.3952Z" fill="#F89F39"/>
<path d="M218.351 32.8071C218.791 33.6429 219.126 34.529 219.351 35.4459C219.923 37.8568 219.521 40.0447 218.204 41.0709C218.072 41.1775 217.93 41.2707 217.779 41.3491C216.131 42.2101 213.858 41.3013 212.035 39.2679C211.409 38.5608 210.872 37.7799 210.436 36.9427C209.999 36.1163 209.666 35.2391 209.445 34.3311C208.803 31.6684 209.35 29.2669 211.003 28.4033C213.192 27.2596 216.481 29.234 218.351 32.8071Z" fill="white"/>
<path d="M217.651 36.9281C218.32 38.2002 218.516 39.6682 218.204 41.0709C218.072 41.1775 217.93 41.2707 217.779 41.3491C216.131 42.2101 213.857 41.3013 212.035 39.2679C211.409 38.5607 210.872 37.7799 210.436 36.9427C209.999 36.1163 209.666 35.2391 209.444 34.3311C210.878 33.5922 212.546 33.4506 214.084 33.9373C215.622 34.424 216.905 35.4993 217.651 36.9281Z" fill="#3F3D56"/>
<path d="M234.748 24.2404C236.544 27.6709 236.379 31.3306 234.429 32.6313C234.348 32.6865 234.263 32.7369 234.176 32.7823C231.992 33.9235 228.703 31.949 226.832 28.3759C226.396 27.5511 226.064 26.6756 225.844 25.7692C225.199 23.1017 225.746 20.7002 227.399 19.8366C229.589 18.6928 232.877 20.6673 234.748 24.2404Z" fill="white"/>
<path d="M233.886 28.4461C234.562 29.7314 234.755 31.2163 234.429 32.6313C234.348 32.6865 234.263 32.7369 234.176 32.7823C231.992 33.9235 228.703 31.949 226.832 28.3759C226.396 27.5511 226.064 26.6756 225.844 25.7692C227.27 25.0874 228.906 24.9855 230.406 25.4848C231.906 25.9842 233.154 27.0459 233.886 28.4461Z" fill="#3F3D56"/>
<path d="M216.28 57.0477C221.253 66.5481 230.901 71.3153 237.829 67.6955C244.757 64.0757 246.342 53.4396 241.369 43.9393C235.906 51.8968 227.633 56.3771 216.28 57.0477Z" fill="white"/>
<path opacity="0.2" d="M277.292 22.7052C273.273 15.0274 266.986 8.77112 259.286 4.7858C251.585 0.800485 242.843 -0.72085 234.247 0.42833C244.397 1.76268 253.716 6.73402 260.472 14.418C267.228 22.102 270.961 31.9757 270.977 42.2032C270.993 52.4307 267.291 62.3159 260.559 70.021C253.827 77.726 244.523 82.7263 234.378 84.0923C242.044 85.0985 249.839 83.9827 256.913 80.8666C263.988 77.7504 270.07 72.7536 274.498 66.4208C278.925 60.088 281.527 52.6625 282.019 44.9538C282.512 37.2451 280.877 29.5492 277.292 22.7052Z" fill="black"/>
</svg>
